<?xml version="1.0" standalone="no"?>
<!DOCTYPE svg PUBLIC "-//W3C//DTD SVG 20010904//EN"
 "http://www.w3.org/TR/2001/REC-SVG-20010904/DTD/svg10.dtd">
<svg version="1.0" xmlns="http://www.w3.org/2000/svg"
 width="784.000000pt" height="1168.000000pt" viewBox="0 0 784.000000 1168.000000"
 preserveAspectRatio="xMidYMid meet">

<g transform="translate(0.000000,1168.000000) scale(0.100000,-0.100000)"
fill="#000000" stroke="none">
<path d="M0 5840 l0 -5840 3920 0 3920 0 0 5840 0 5840 -3920 0 -3920 0 0
-5840z m4047 2884 c56 -27 100 -71 135 -137 23 -42 23 -43 26 -589 1 -302 0
-548 -2 -548 -3 0 -77 38 -163 84 -87 46 -216 114 -286 150 l-128 68 3 386 c3
371 4 389 24 433 74 160 239 224 391 153z m-763 -1093 c61 -32 152 -80 201
-106 50 -26 117 -62 150 -80 33 -18 98 -53 145 -77 274 -145 472 -250 600
-318 80 -42 190 -101 245 -130 55 -29 132 -70 170 -90 39 -21 99 -53 135 -72
36 -19 110 -59 165 -88 118 -62 159 -98 181 -157 20 -52 14 -99 -19 -156 -22
-36 -45 -53 -168 -121 -79 -43 -259 -143 -399 -221 -140 -78 -455 -254 -700
-390 -245 -136 -479 -266 -520 -290 -233 -131 -282 -156 -322 -161 -87 -12
-169 30 -208 107 -20 37 -20 66 -20 1141 0 726 4 1116 10 1140 12 42 60 95
105 114 16 7 54 13 84 14 47 0 68 -8 165 -59z m926 -2591 l0 -240 342 -2 342
-3 -276 -285 c-152 -157 -371 -382 -486 -500 l-211 -215 -78 80 c-125 129
-482 494 -695 711 -109 111 -198 204 -198 207 0 4 153 7 340 7 l340 0 0 83 0
82 212 115 c117 63 244 134 283 157 38 24 73 43 78 43 4 0 7 -108 7 -240z
m-2150 -291 c69 -35 113 -86 142 -167 15 -42 17 -102 18 -559 l0 -513 1705 0
1704 0 3 538 c3 529 3 538 25 577 29 54 88 109 143 134 50 23 141 28 202 11
55 -16 129 -79 163 -141 l30 -54 3 -699 c3 -814 7 -772 -87 -867 -40 -39 -72
-62 -102 -71 -36 -11 -415 -13 -2094 -13 l-2050 0 -46 21 c-66 31 -114 78
-146 142 l-28 57 0 710 0 710 23 46 c51 103 153 168 268 169 49 0 73 -6 124
-31z"/>
</g>
</svg>
